<svg width="32" height="32" viewBox="0 0 32 32" fill="none" xmlns="http://www.w3.org/2000/svg">
<path d="M27.648 7.38257V10.0492H24.9813H27.648" stroke="#0000FF" stroke-width="2" stroke-linecap="round" stroke-linejoin="round"/>
<path d="M10.116 14.3053C10.116 13.224 10.9934 12.3467 12.0747 12.3467C13.156 12.3467 14.0334 13.224 14.0334 14.3053C14.0334 16.7533 10.1174 16.7533 10.1174 19.652H14.0334" stroke="#0000FF" stroke-width="2" stroke-linecap="round" stroke-linejoin="round"/>
<path d="M21.192 16.0399L17.8427 16.0039C17.6533 16.0012 17.5 15.8479 17.5 15.6572V12.3479" stroke="#0000FF" stroke-width="2" stroke-linecap="round" stroke-linejoin="round"/>
<path d="M21.1867 12.4268V19.6534" stroke="#0000FF" stroke-width="2" stroke-linecap="round" stroke-linejoin="round"/>
<path d="M27.0667 10.0506C24.9294 6.18124 20.776 3.55591 16 3.55591C9.1267 3.55591 3.55603 9.12791 3.55603 15.9999C3.55603 22.8719 9.1267 28.4439 16 28.4439C22.8734 28.4439 28.444 22.8719 28.444 15.9999" stroke="#0000FF" stroke-width="2" stroke-linecap="round" stroke-linejoin="round"/>
</svg>
