<svg width="32" height="32" viewBox="0 0 32 32" fill="none" xmlns="http://www.w3.org/2000/svg">
<path d="M24.6667 20.6667L21.3334 24.0001L19.3334 22.0001" stroke="#0000FF" stroke-width="2" stroke-linecap="round" stroke-linejoin="round"/>
<path fill-rule="evenodd" clip-rule="evenodd" d="M25 28H19C17.3427 28 16 26.6573 16 25V19C16 17.3427 17.3427 16 19 16H25C26.6573 16 28 17.3427 28 19V25C28 26.6573 26.6573 28 25 28Z" stroke="#0000FF" stroke-width="2" stroke-linecap="round" stroke-linejoin="round"/>
<path d="M27.2318 6.40405V10.2614H23.3745H27.2318" stroke="#0000FF" stroke-width="2" stroke-linecap="round" stroke-linejoin="round"/>
<path d="M12 27.3027C7.34267 25.6533 4 21.2227 4 16C4 9.37333 9.372 4 16 4C20.5493 4 24.5053 6.532 26.54 10.2613" stroke="#0000FF" stroke-width="2" stroke-linecap="round" stroke-linejoin="round"/>
</svg>
