<svg width="56" height="56" viewBox="0 0 56 56" fill="none" xmlns="http://www.w3.org/2000/svg">
<path d="M46.6665 28V46.6667" stroke="#0000FF" stroke-width="3" stroke-linecap="round" stroke-linejoin="round"/>
<path d="M34.3 34.23V46.6666" stroke="#0000FF" stroke-width="3" stroke-linecap="round" stroke-linejoin="round"/>
<path d="M9.33329 39.667V46.667" stroke="#0000FF" stroke-width="3" stroke-linecap="round" stroke-linejoin="round"/>
<path d="M21.7 31.7334V46.6667" stroke="#0000FF" stroke-width="3" stroke-linecap="round" stroke-linejoin="round"/>
<path d="M37.1919 19.8537C38.7865 21.4483 38.7865 24.0338 37.1919 25.6284C35.5972 27.223 33.0118 27.223 31.4172 25.6284C29.8225 24.0338 29.8225 21.4483 31.4172 19.8537C33.0118 18.2591 35.5972 18.2591 37.1919 19.8537" stroke="#0000FF" stroke-width="3" stroke-linecap="round" stroke-linejoin="round"/>
<path d="M49.7988 9.34637C51.3934 10.941 51.3934 13.5264 49.7988 15.1211C48.2042 16.7157 45.6187 16.7157 44.0241 15.1211C42.4295 13.5264 42.4295 10.941 44.0241 9.34637C45.6187 7.75173 48.2042 7.75173 49.7988 9.34637" stroke="#0000FF" stroke-width="3" stroke-linecap="round" stroke-linejoin="round"/>
<path d="M11.9757 21.9396C13.5703 23.5343 13.5703 26.1197 11.9757 27.7143C10.381 29.309 7.79561 29.309 6.20099 27.7143C4.60634 26.1197 4.60634 23.5343 6.20099 21.9396C7.79563 20.345 10.3811 20.345 11.9757 21.9396" stroke="#0000FF" stroke-width="3" stroke-linecap="round" stroke-linejoin="round"/>
<path d="M24.5852 11.4348C26.1798 13.0294 26.1798 15.6148 24.5852 17.2094C22.9905 18.8041 20.4051 18.8041 18.8105 17.2094C17.2158 15.6148 17.2158 13.0294 18.8105 11.4348C20.4051 9.84011 22.9906 9.84011 24.5852 11.4348" stroke="#0000FF" stroke-width="3" stroke-linecap="round" stroke-linejoin="round"/>
<path d="M43.7966 14.8403L37.4266 20.137" stroke="#0000FF" stroke-width="3" stroke-linecap="round" stroke-linejoin="round"/>
<path d="M30.8933 20.487L25.0833 16.5903" stroke="#0000FF" stroke-width="3" stroke-linecap="round" stroke-linejoin="round"/>
<path d="M12.2267 22.2371L18.5734 16.9404" stroke="#0000FF" stroke-width="3" stroke-linecap="round" stroke-linejoin="round"/>
</svg>
