<svg width="44" height="44" viewBox="0 0 44 44" fill="none" xmlns="http://www.w3.org/2000/svg">
<path d="M35.991 19.3509L36.2846 19.0561C36.7427 18.5948 37 17.9698 37 17.3183C37 16.6667 36.7427 16.0418 36.2846 15.5804L25.4721 4.71734C25.0135 4.25797 24.3921 4 23.7444 4C23.0966 4 22.4753 4.25797 22.0167 4.71734L4.71546 22.0958C4.25723 22.5584 4 23.1843 4 23.8367C4 24.4892 4.25723 25.1151 4.71546 25.5777L10.1156 31L35.991 19.3509Z" fill="#50AD64"/>
<path d="M5.15137 26.2363L26.2239 5.16377L28.8551 7.79499L7.78258 28.8675L5.15137 26.2363Z" fill="#449956"/>
<path d="M37.5 20H12.5C11.1193 20 10 21.0854 10 22.4242V37.5758C10 38.9146 11.1193 40 12.5 40H37.5C38.8807 40 40 38.9146 40 37.5758V22.4242C40 21.0854 38.8807 20 37.5 20Z" fill="#5FC77D"/>
<path d="M17.375 23H13.625C13.2798 23 13 23.2239 13 23.5V25.5C13 25.7761 13.2798 26 13.625 26H17.375C17.7202 26 18 25.7761 18 25.5V23.5C18 23.2239 17.7202 23 17.375 23Z" fill="#FDE05E"/>
<path d="M12.6895 30.6898C12.5249 30.6898 12.367 30.6244 12.2506 30.508C12.1342 30.3916 12.0688 30.2337 12.0688 30.0691V28.8277C12.0688 28.6631 12.1342 28.5052 12.2506 28.3888C12.367 28.2724 12.5249 28.207 12.6895 28.207C12.8542 28.207 13.012 28.2724 13.1284 28.3888C13.2448 28.5052 13.3102 28.6631 13.3102 28.8277V30.0691C13.3102 30.2337 13.2448 30.3916 13.1284 30.508C13.012 30.6244 12.8542 30.6898 12.6895 30.6898Z" fill="#E1EFFF"/>
<path d="M15.1725 30.6898C15.0078 30.6898 14.85 30.6244 14.7336 30.508C14.6172 30.3916 14.5518 30.2337 14.5518 30.0691V28.8277C14.5518 28.6631 14.6172 28.5052 14.7336 28.3888C14.85 28.2724 15.0078 28.207 15.1725 28.207C15.3371 28.207 15.4949 28.2724 15.6113 28.3888C15.7277 28.5052 15.7931 28.6631 15.7931 28.8277V30.0691C15.7931 30.2337 15.7277 30.3916 15.6113 30.508C15.4949 30.6244 15.3371 30.6898 15.1725 30.6898Z" fill="#E1EFFF"/>
<path d="M17.6546 30.6898C17.49 30.6898 17.3321 30.6244 17.2157 30.508C17.0993 30.3916 17.0339 30.2337 17.0339 30.0691V28.8277C17.0339 28.6631 17.0993 28.5052 17.2157 28.3888C17.3321 28.2724 17.49 28.207 17.6546 28.207C17.8192 28.207 17.9771 28.2724 18.0935 28.3888C18.2099 28.5052 18.2753 28.6631 18.2753 28.8277V30.0691C18.2753 30.2337 18.2099 30.3916 18.0935 30.508C17.9771 30.6244 17.8192 30.6898 17.6546 30.6898Z" fill="#E1EFFF"/>
<path d="M20.1378 30.6898C19.9732 30.6898 19.8153 30.6244 19.6989 30.508C19.5825 30.3916 19.5171 30.2337 19.5171 30.0691V28.8277C19.5171 28.6631 19.5825 28.5052 19.6989 28.3888C19.8153 28.2724 19.9732 28.207 20.1378 28.207C20.3024 28.207 20.4603 28.2724 20.5767 28.3888C20.6931 28.5052 20.7585 28.6631 20.7585 28.8277V30.0691C20.7585 30.2337 20.6931 30.3916 20.5767 30.508C20.4603 30.6244 20.3024 30.6898 20.1378 30.6898Z" fill="#E1EFFF"/>
<path d="M22.6207 30.6898C22.4561 30.6898 22.2982 30.6244 22.1818 30.508C22.0654 30.3916 22 30.2337 22 30.0691V28.8277C22 28.6631 22.0654 28.5052 22.1818 28.3888C22.2982 28.2724 22.4561 28.207 22.6207 28.207C22.7853 28.207 22.9432 28.2724 23.0596 28.3888C23.176 28.5052 23.2414 28.6631 23.2414 28.8277V30.0691C23.2414 30.2337 23.176 30.3916 23.0596 30.508C22.9432 30.6244 22.7853 30.6898 22.6207 30.6898Z" fill="#E1EFFF"/>
<path d="M27.5858 30.6898C27.4212 30.6898 27.2633 30.6244 27.1469 30.508C27.0305 30.3916 26.9651 30.2337 26.9651 30.0691V28.8277C26.9651 28.6631 27.0305 28.5052 27.1469 28.3888C27.2633 28.2724 27.4212 28.207 27.5858 28.207C27.7504 28.207 27.9083 28.2724 28.0247 28.3888C28.1411 28.5052 28.2065 28.6631 28.2065 28.8277V30.0691C28.2065 30.2337 28.1411 30.3916 28.0247 30.508C27.9083 30.6244 27.7504 30.6898 27.5858 30.6898Z" fill="#E1EFFF"/>
<path d="M30.0687 30.6898C29.9041 30.6898 29.7462 30.6244 29.6298 30.508C29.5134 30.3916 29.448 30.2337 29.448 30.0691V28.8277C29.448 28.6631 29.5134 28.5052 29.6298 28.3888C29.7462 28.2724 29.9041 28.207 30.0687 28.207C30.2333 28.207 30.3912 28.2724 30.5076 28.3888C30.624 28.5052 30.6894 28.6631 30.6894 28.8277V30.0691C30.6894 30.2337 30.624 30.3916 30.5076 30.508C30.3912 30.6244 30.2333 30.6898 30.0687 30.6898Z" fill="#E1EFFF"/>
<path d="M32.5518 30.6898C32.3872 30.6898 32.2294 30.6244 32.1129 30.508C31.9965 30.3916 31.9312 30.2337 31.9312 30.0691V28.8277C31.9312 28.6631 31.9965 28.5052 32.1129 28.3888C32.2294 28.2724 32.3872 28.207 32.5518 28.207C32.7165 28.207 32.8743 28.2724 32.9907 28.3888C33.1071 28.5052 33.1725 28.6631 33.1725 28.8277V30.0691C33.1725 30.2337 33.1071 30.3916 32.9907 30.508C32.8743 30.6244 32.7165 30.6898 32.5518 30.6898Z" fill="#E1EFFF"/>
<path d="M35.0348 30.6898C34.8701 30.6898 34.7123 30.6244 34.5959 30.508C34.4795 30.3916 34.4141 30.2337 34.4141 30.0691V28.8277C34.4141 28.6631 34.4795 28.5052 34.5959 28.3888C34.7123 28.2724 34.8701 28.207 35.0348 28.207C35.1994 28.207 35.3573 28.2724 35.4737 28.3888C35.5901 28.5052 35.6555 28.6631 35.6555 28.8277V30.0691C35.6555 30.2337 35.5901 30.3916 35.4737 30.508C35.3573 30.6244 35.1994 30.6898 35.0348 30.6898Z" fill="#E1EFFF"/>
<path d="M15.3333 33H12.6667C12.4899 33 12.3203 32.9473 12.1953 32.8536C12.0702 32.7598 12 32.6326 12 32.5C12 32.3674 12.0702 32.2402 12.1953 32.1464C12.3203 32.0527 12.4899 32 12.6667 32H15.3333C15.5101 32 15.6797 32.0527 15.8047 32.1464C15.9298 32.2402 16 32.3674 16 32.5C16 32.6326 15.9298 32.7598 15.8047 32.8536C15.6797 32.9473 15.5101 33 15.3333 33Z" fill="#50AD64"/>
<path d="M20.3333 33H17.6667C17.4899 33 17.3203 32.9473 17.1953 32.8536C17.0702 32.7598 17 32.6326 17 32.5C17 32.3674 17.0702 32.2402 17.1953 32.1464C17.3203 32.0527 17.4899 32 17.6667 32H20.3333C20.5101 32 20.6797 32.0527 20.8047 32.1464C20.9298 32.2402 21 32.3674 21 32.5C21 32.6326 20.9298 32.7598 20.8047 32.8536C20.6797 32.9473 20.5101 33 20.3333 33Z" fill="#50AD64"/>
<path d="M15.3333 36H12.6667C12.4899 36 12.3203 35.8946 12.1953 35.7071C12.0702 35.5196 12 35.2652 12 35C12 34.7348 12.0702 34.4804 12.1953 34.2929C12.3203 34.1054 12.4899 34 12.6667 34H15.3333C15.5101 34 15.6797 34.1054 15.8047 34.2929C15.9298 34.4804 16 34.7348 16 35C16 35.2652 15.9298 35.5196 15.8047 35.7071C15.6797 35.8946 15.5101 36 15.3333 36Z" fill="#50AD64"/>
<path d="M20.3333 36H17.6667C17.4899 36 17.3203 35.8946 17.1953 35.7071C17.0702 35.5196 17 35.2652 17 35C17 34.7348 17.0702 34.4804 17.1953 34.2929C17.3203 34.1054 17.4899 34 17.6667 34H20.3333C20.5101 34 20.6797 34.1054 20.8047 34.2929C20.9298 34.4804 21 34.7348 21 35C21 35.2652 20.9298 35.5196 20.8047 35.7071C20.6797 35.8946 20.5101 36 20.3333 36Z" fill="#50AD64"/>
<path d="M25.3333 33H22.6667C22.4899 33 22.3203 32.9473 22.1953 32.8536C22.0702 32.7598 22 32.6326 22 32.5C22 32.3674 22.0702 32.2402 22.1953 32.1464C22.3203 32.0527 22.4899 32 22.6667 32H25.3333C25.5101 32 25.6797 32.0527 25.8047 32.1464C25.9298 32.2402 26 32.3674 26 32.5C26 32.6326 25.9298 32.7598 25.8047 32.8536C25.6797 32.9473 25.5101 33 25.3333 33Z" fill="#50AD64"/>
</svg>
