<svg width="18" height="19" viewBox="0 0 18 19" fill="none" xmlns="http://www.w3.org/2000/svg">
<g clip-path="url(#clip0_39_493)">
<path d="M5.5682 10.821C5.50079 10.821 4.01785 10.821 3.34379 10.821C2.98429 10.821 2.87195 10.6862 2.87195 10.3491C2.87195 9.45037 2.87195 8.52915 2.87195 7.6304C2.87195 7.2709 3.00676 7.15856 3.34379 7.15856H5.5682C5.5682 7.09115 5.5682 5.78797 5.5682 5.18131C5.5682 4.28256 5.72548 3.42875 6.17485 2.64234C6.6467 1.83347 7.32076 1.29422 8.17457 0.979655C8.73629 0.777436 9.29801 0.687561 9.90467 0.687561H12.1066C12.4212 0.687561 12.556 0.822374 12.556 1.13694V3.69837C12.556 4.01294 12.4212 4.14775 12.1066 4.14775C11.4999 4.14775 10.8933 4.14775 10.2866 4.17022C9.67998 4.17022 9.36542 4.46231 9.36542 5.09144C9.34295 5.7655 9.36542 6.41709 9.36542 7.11362H11.9718C12.3313 7.11362 12.4661 7.24844 12.4661 7.60793V10.3267C12.4661 10.6862 12.3538 10.7985 11.9718 10.7985C11.1629 10.7985 9.43282 10.7985 9.36542 10.7985V18.1233C9.36542 18.5053 9.25307 18.6401 8.84863 18.6401C7.90495 18.6401 6.98373 18.6401 6.04004 18.6401C5.70301 18.6401 5.5682 18.5053 5.5682 18.1682C5.5682 15.809 5.5682 10.8884 5.5682 10.821Z" fill="#C2C3CA"/>
</g>
<defs>
<clipPath id="clip0_39_493">
<rect width="17.9498" height="17.9498" fill="white" transform="translate(0 0.513672)"/>
</clipPath>
</defs>
</svg>
