<svg width="30" height="30" viewBox="0 0 30 30" fill="none" xmlns="http://www.w3.org/2000/svg">
<path d="M14.9987 10C14.8262 10 14.6862 10.14 14.6875 10.3125C14.6875 10.485 14.8275 10.625 15 10.625C15.1725 10.625 15.3125 10.485 15.3125 10.3125C15.3125 10.14 15.1725 10 14.9987 10" stroke="#5C5CFF" stroke-width="1.60714" stroke-linecap="round" stroke-linejoin="round"/>
<path fill-rule="evenodd" clip-rule="evenodd" d="M15 26.25V26.25C8.78625 26.25 3.75 21.2138 3.75 15V15C3.75 8.78625 8.78625 3.75 15 3.75V3.75C21.2138 3.75 26.25 8.78625 26.25 15V15C26.25 21.2138 21.2138 26.25 15 26.25Z" stroke="#5C5CFF" stroke-width="1.60714" stroke-linecap="round" stroke-linejoin="round"/>
<path d="M15 15V21.25" stroke="#5C5CFF" stroke-width="1.60714" stroke-linecap="round" stroke-linejoin="round"/>
</svg>
