<svg width="19" height="19" viewBox="0 0 19 19" fill="none" xmlns="http://www.w3.org/2000/svg">
<g clip-path="url(#clip0_39_479)">
<path d="M18.4459 5.79095C18.4038 4.83721 18.2496 4.18152 18.0286 3.61336C17.8007 3.01027 17.4501 2.47032 16.9907 2.02147C16.5418 1.56562 15.9983 1.21141 15.4022 0.987049C14.8307 0.766112 14.1785 0.611881 13.2247 0.569831C12.2639 0.524219 11.9588 0.513672 9.52182 0.513672C7.08481 0.513672 6.77977 0.524219 5.82247 0.566269C4.86873 0.60832 4.21305 0.762688 3.64502 0.983488C3.04179 1.21141 2.50185 1.56206 2.05299 2.02147C1.59715 2.47032 1.24307 3.01383 1.01857 3.60994C0.797637 4.18152 0.643406 4.83365 0.601355 5.78739C0.555743 6.74825 0.545197 7.05329 0.545197 9.4903C0.545197 11.9273 0.555743 12.2324 0.597794 13.1897C0.639845 14.1434 0.794212 14.7991 1.01515 15.3672C1.24307 15.9703 1.59715 16.5103 2.05299 16.9591C2.50185 17.415 3.04535 17.7692 3.64146 17.9936C4.21305 18.2145 4.86517 18.3687 5.81905 18.4108C6.77621 18.453 7.08139 18.4634 9.5184 18.4634C11.9554 18.4634 12.2605 18.453 13.2178 18.4108C14.1715 18.3687 14.8272 18.2145 15.3952 17.9936C16.6015 17.5272 17.5553 16.5734 18.0217 15.3672C18.2424 14.7957 18.3968 14.1434 18.4389 13.1897C18.4809 12.2324 18.4915 11.9273 18.4915 9.4903C18.4915 7.05329 18.4879 6.74825 18.4459 5.79095ZM16.8294 13.1195C16.7908 13.9962 16.6436 14.4695 16.5208 14.7851C16.2192 15.5671 15.5986 16.1877 14.8166 16.4893C14.501 16.6121 14.0242 16.7593 13.151 16.7978C12.2043 16.84 11.9203 16.8504 9.52538 16.8504C7.13042 16.8504 6.84292 16.84 5.89959 16.7978C5.02296 16.7593 4.54959 16.6121 4.234 16.4893C3.84486 16.3455 3.49065 16.1176 3.20315 15.8195C2.9051 15.5285 2.67717 15.1778 2.53335 14.7887C2.41062 14.4731 2.26338 13.9962 2.22489 13.1231C2.1827 12.1763 2.17229 11.8923 2.17229 9.49729C2.17229 7.10233 2.1827 6.81482 2.22489 5.87163C2.26338 4.995 2.41062 4.52163 2.53335 4.20604C2.67717 3.81677 2.9051 3.46269 3.20671 3.17505C3.49764 2.877 3.84829 2.64907 4.23756 2.50539C4.55315 2.38266 5.03009 2.23542 5.90315 2.19679C6.8499 2.15474 7.13398 2.14419 9.52881 2.14419C11.9273 2.14419 12.2113 2.15474 13.1546 2.19679C14.0312 2.23542 14.5046 2.38266 14.8202 2.50539C15.2093 2.64907 15.5635 2.877 15.851 3.17505C16.1491 3.46612 16.377 3.81677 16.5208 4.20604C16.6436 4.52163 16.7908 4.99843 16.8294 5.87163C16.8715 6.81838 16.882 7.10233 16.882 9.49729C16.882 11.8923 16.8715 12.1728 16.8294 13.1195Z" fill="#C2C3CA"/>
<path d="M9.52181 4.87915C6.97617 4.87915 4.91077 6.94442 4.91077 9.4902C4.91077 12.036 6.97617 14.1012 9.52181 14.1012C12.0676 14.1012 14.1328 12.036 14.1328 9.4902C14.1328 6.94442 12.0676 4.87915 9.52181 4.87915ZM9.52181 12.4813C7.87033 12.4813 6.53074 11.1418 6.53074 9.4902C6.53074 7.83858 7.87033 6.49913 9.52181 6.49913C11.1734 6.49913 12.5129 7.83858 12.5129 9.4902C12.5129 11.1418 11.1734 12.4813 9.52181 12.4813Z" fill="#C2C3CA"/>
<path d="M15.3918 4.69683C15.3918 5.29129 14.9098 5.7733 14.3152 5.7733C13.7208 5.7733 13.2388 5.29129 13.2388 4.69683C13.2388 4.10223 13.7208 3.62036 14.3152 3.62036C14.9098 3.62036 15.3918 4.10223 15.3918 4.69683Z" fill="#C2C3CA"/>
</g>
<defs>
<clipPath id="clip0_39_479">
<rect width="17.9498" height="17.9498" fill="white" transform="translate(0.513672 0.513672)"/>
</clipPath>
</defs>
</svg>
