<svg width="27" height="27" viewBox="0 0 27 27" fill="none" xmlns="http://www.w3.org/2000/svg">
<path fill-rule="evenodd" clip-rule="evenodd" d="M26.9992 13.7454C27.0786 6.30043 21.2023 0.164446 13.8172 0.000819518C6.27334 -0.0809936 0.0794094 5.97318 0 13.5C0 20.945 5.95571 26.9173 13.4202 26.9992C20.8053 27.081 26.9198 21.1904 26.9992 13.7454ZM10.7386 6.13636H16.2614C18.8027 6.13636 20.8636 8.19726 20.8636 10.7386V16.2614C20.8636 18.8027 18.8027 20.8636 16.2614 20.8636H10.7386C8.19726 20.8636 6.13636 18.8027 6.13636 16.2614V10.7386C6.13636 8.19726 8.19726 6.13636 10.7386 6.13636Z" fill="#8293A9"/>
<path d="M17.1818 13.5C17.1818 15.5334 15.5334 17.1818 13.5 17.1818C11.4666 17.1818 9.81818 15.5334 9.81818 13.5C9.81818 11.4666 11.4666 9.81818 13.5 9.81818C15.5334 9.81818 17.1818 11.4666 17.1818 13.5Z" fill="#8293A9"/>
<path d="M18.4091 9.20454C18.4091 9.54345 18.1344 9.81818 17.7955 9.81818C17.4566 9.81818 17.1818 9.54345 17.1818 9.20454C17.1818 8.86564 17.4566 8.59091 17.7955 8.59091C18.1344 8.59091 18.4091 8.86564 18.4091 9.20454Z" fill="#8293A9"/>
</svg>
