<svg width="33" height="33" viewBox="0 0 33 33" fill="none" xmlns="http://www.w3.org/2000/svg">
<path fill-rule="evenodd" clip-rule="evenodd" d="M10.4837 27.8252L6.15757 23.4991C5.40749 22.7486 4.98633 21.7308 4.98633 20.6697V13.3141C4.98633 12.2529 5.40834 11.2351 6.1589 10.4848L10.485 6.15866C11.2353 5.40809 12.2531 4.98608 13.3144 4.98608H20.67C21.7313 4.98608 22.749 5.40809 23.4994 6.15866L27.8268 10.4861C28.5769 11.2367 28.998 12.2544 28.998 13.3155V20.6697C28.998 21.7308 28.5769 22.7486 27.8268 23.4991L23.5007 27.8266C22.7498 28.577 21.7316 28.9983 20.67 28.9978H13.3144C12.2526 28.9978 11.2343 28.5761 10.4837 27.8252V27.8252Z" stroke="#0000FF" stroke-width="1.69893" stroke-linecap="round" stroke-linejoin="round"/>
<path d="M20.4427 18.4236L22.2012 16.6651C23.5977 15.2334 23.5834 12.945 22.1692 11.5308C20.755 10.1166 18.4666 10.1023 17.0349 11.4988L15.2764 13.2573" stroke="#0000FF" stroke-width="1.69893" stroke-linecap="round" stroke-linejoin="round"/>
<path d="M18.9901 14.7092L14.709 18.9903" stroke="#0000FF" stroke-width="1.69893" stroke-linecap="round" stroke-linejoin="round"/>
<path d="M13.2575 15.2758L11.499 17.0343C10.1025 18.466 10.1168 20.7544 11.531 22.1686C12.9452 23.5828 15.2337 23.5971 16.6654 22.2006L18.4239 20.4421" stroke="#0000FF" stroke-width="1.69893" stroke-linecap="round" stroke-linejoin="round"/>
</svg>
