<svg width="32" height="32" viewBox="0 0 32 32" fill="none" xmlns="http://www.w3.org/2000/svg">
<path fill-rule="evenodd" clip-rule="evenodd" d="M9.81966 26.8808L5.56345 22.6246C4.82549 21.8861 4.41113 20.8848 4.41113 19.8409V12.6041C4.41113 11.56 4.82632 10.5587 5.56476 9.82048L9.82097 5.56427C10.5592 4.82583 11.5605 4.41064 12.6046 4.41064H19.8414C20.8855 4.41064 21.8868 4.82583 22.625 5.56427L26.8826 9.82179C27.6205 10.5602 28.0349 11.5615 28.0349 12.6055V19.8409C28.0349 20.8848 27.6205 21.8861 26.8826 22.6246L22.6264 26.8821C21.8876 27.6204 20.8858 28.0349 19.8414 28.0344H12.6046C11.56 28.0344 10.5582 27.6195 9.81966 26.8808V26.8808Z" stroke="#0000FF" stroke-width="1.67147" stroke-linecap="round" stroke-linejoin="round"/>
<path d="M17.7825 20.5683H12.2109" stroke="#0000FF" stroke-width="1.67147" stroke-linecap="round" stroke-linejoin="round"/>
<path d="M12.2109 11.6537H20.5683" stroke="#0000FF" stroke-width="1.67147" stroke-linecap="round" stroke-linejoin="round"/>
<path d="M12.2109 16.111H20.5683" stroke="#0000FF" stroke-width="1.67147" stroke-linecap="round" stroke-linejoin="round"/>
</svg>
