<svg width="34" height="34" viewBox="0 0 34 34" fill="none" xmlns="http://www.w3.org/2000/svg">
<path d="M12.9982 9.58223H27.671" stroke="#0000FF" stroke-width="2" stroke-linecap="round" stroke-linejoin="round"/>
<path d="M27.671 17H12.9982" stroke="#0000FF" stroke-width="2" stroke-linecap="round" stroke-linejoin="round"/>
<path d="M12.9982 24.4179H27.671" stroke="#0000FF" stroke-width="2" stroke-linecap="round" stroke-linejoin="round"/>
<path d="M6.99574 8.91528C6.6274 8.91528 6.3288 9.21388 6.3288 9.58223C6.3288 9.95057 6.6274 10.2492 6.99574 10.2492C7.36408 10.2492 7.66268 9.95057 7.66268 9.58223C7.66268 9.21388 7.36408 8.91528 6.99574 8.91528" stroke="#0000FF" stroke-width="2" stroke-linecap="round" stroke-linejoin="round"/>
<path d="M6.99574 16.333C6.6274 16.333 6.3288 16.6316 6.3288 17C6.3288 17.3683 6.6274 17.6669 6.99574 17.6669C7.36408 17.6669 7.66268 17.3683 7.66268 17C7.66268 16.6316 7.36408 16.333 6.99574 16.333" stroke="#0000FF" stroke-width="2" stroke-linecap="round" stroke-linejoin="round"/>
<path d="M6.99574 23.751C6.6274 23.751 6.3288 24.0496 6.3288 24.4179C6.3288 24.7863 6.6274 25.0849 6.99574 25.0849C7.36408 25.0849 7.66268 24.7863 7.66268 24.4179C7.66268 24.0496 7.36408 23.751 6.99574 23.751" stroke="#0000FF" stroke-width="2" stroke-linecap="round" stroke-linejoin="round"/>
</svg>
