<svg width="221" height="32" viewBox="0 0 221 32" fill="none" xmlns="http://www.w3.org/2000/svg">
<path d="M60.1257 15.6386C60.1257 20.5085 56.7515 23.6674 52.1807 23.6674C50.4697 23.6674 48.9262 23.1648 47.7296 22.1238C47.5143 21.9324 47.1673 22.0879 47.1673 22.3751V28.8124C47.1673 29.0039 47.0117 29.1475 46.8322 29.1475H43.8409C43.6495 29.1475 43.5059 28.9919 43.5059 28.8124V8.14837C43.5059 7.95692 43.6614 7.81334 43.8409 7.81334H46.6528C46.8442 7.81334 46.9878 7.96889 46.9878 8.14837V9.00987C46.9878 9.29704 47.3348 9.46456 47.5502 9.26115C48.7467 8.1723 50.3381 7.63386 52.1807 7.63386C56.7515 7.63386 60.1257 10.8047 60.1257 15.6386ZM56.4045 15.6386C56.4045 12.6473 54.4063 10.7448 51.7739 10.7448C49.1415 10.7448 47.1074 12.6473 47.1074 15.6386C47.1074 18.63 49.1296 20.5324 51.7739 20.5324C54.4063 20.5324 56.4045 18.63 56.4045 15.6386Z" fill="white"/>
<path d="M72.0192 7.98103V10.733C72.0192 10.9365 71.8397 11.092 71.6363 11.0681C71.4688 11.0441 71.3252 11.0441 71.1696 11.0441C68.3817 11.0441 66.6228 12.6834 66.6228 15.8781V23.1291C66.6228 23.3205 66.4673 23.4641 66.2878 23.4641H63.2965C63.105 23.4641 62.9614 23.3086 62.9614 23.1291V8.14854C62.9614 7.95709 63.117 7.81351 63.2965 7.81351H66.1083C66.2997 7.81351 66.4433 7.96906 66.4433 8.14854V9.12969C66.4433 9.44079 66.8143 9.58437 67.0296 9.369C68.0826 8.28015 69.65 7.70583 71.6602 7.646C71.8516 7.63403 72.0192 7.78958 72.0192 7.98103Z" fill="white"/>
<path d="M73.0002 15.6386C73.0002 10.9483 76.518 7.63386 81.3281 7.63386C86.198 7.63386 89.6799 10.9483 89.6799 15.6386C89.6799 20.329 86.186 23.6674 81.3281 23.6674C76.518 23.6674 73.0002 20.329 73.0002 15.6386ZM85.9946 15.6386C85.9946 12.6473 83.9964 10.7448 81.3281 10.7448C78.6957 10.7448 76.6975 12.6473 76.6975 15.6386C76.6975 18.63 78.6957 20.5324 81.3281 20.5324C83.9964 20.5324 85.9946 18.63 85.9946 15.6386Z" fill="white"/>
<path d="M101.705 23.3324L98.0676 18.4147C97.936 18.2352 97.6608 18.2352 97.5172 18.4147L93.8439 23.3324C93.7841 23.4161 93.6764 23.464 93.5687 23.464H90.3859C90.0987 23.464 89.9432 23.1409 90.1227 22.9136L95.6387 15.7225C95.7344 15.6028 95.7344 15.4353 95.6387 15.3156L90.3739 8.35184C90.2064 8.1245 90.362 7.8134 90.6491 7.8134H93.8678C93.9755 7.8134 94.0712 7.86127 94.143 7.94502L97.6129 12.5756C97.7446 12.7551 98.0198 12.7551 98.1514 12.5756L101.621 7.94502C101.681 7.86127 101.789 7.8134 101.897 7.8134H104.996C105.271 7.8134 105.438 8.13647 105.259 8.36381L99.9701 15.2678C99.8744 15.3874 99.8744 15.5549 99.9701 15.6746L105.522 22.9256C105.69 23.1529 105.534 23.476 105.247 23.476H101.968C101.873 23.464 101.777 23.4161 101.705 23.3324Z" fill="white"/>
<path d="M123.279 7.8134C123.518 7.8134 123.685 8.06467 123.59 8.29201L116.47 24.7323C115.034 28.2741 113.036 29.3629 110.428 29.3629C108.98 29.3629 107.46 28.9082 106.455 28.1065C106.324 27.9989 106.288 27.8194 106.372 27.6758L107.508 25.5938C107.604 25.4144 107.843 25.3545 108.011 25.4861C108.681 26.0007 109.542 26.3118 110.404 26.3118C111.696 26.3118 112.462 25.7015 113.156 24.146L113.359 23.6674C113.395 23.5837 113.395 23.4879 113.359 23.4042L106.79 8.30398C106.695 8.07664 106.862 7.82537 107.101 7.82537H110.176C110.308 7.82537 110.44 7.90912 110.488 8.02877L115.01 18.6659C115.13 18.9411 115.513 18.9411 115.633 18.6659L120.191 8.02877C120.239 7.90912 120.371 7.82537 120.503 7.82537H123.279V7.8134Z" fill="white"/>
<path d="M150.942 14.1791V23.1292C150.942 23.3206 150.787 23.4642 150.607 23.4642H149.818C149.626 23.4642 149.483 23.3086 149.483 23.1292V14.2988C149.483 10.8408 147.7 9.02208 144.708 9.02208C141.25 9.02208 139.109 11.3433 139.109 14.9688V23.1292C139.109 23.3206 138.953 23.4642 138.774 23.4642H137.984C137.792 23.4642 137.649 23.3086 137.649 23.1292V14.2988C137.649 10.8408 135.866 9.02208 132.875 9.02208C129.417 9.02208 127.275 11.3433 127.275 14.9688V23.1292C127.275 23.3206 127.119 23.4642 126.94 23.4642H126.15C125.959 23.4642 125.815 23.3086 125.815 23.1292V8.1486C125.815 7.95716 125.971 7.81358 126.15 7.81358H126.88C127.072 7.81358 127.215 7.96912 127.215 8.1486V9.85965C127.215 10.1827 127.634 10.3263 127.825 10.0631C128.95 8.55542 130.769 7.69392 133.078 7.69392C135.567 7.69392 137.469 8.72294 138.415 10.7211C138.534 10.9604 138.869 10.9844 139.013 10.757C140.126 8.89046 142.196 7.69392 144.876 7.69392C148.537 7.69392 150.942 9.89554 150.942 14.1791Z" fill="white"/>
<path d="M166.808 13.6885V23.1172C166.808 23.3086 166.653 23.4522 166.473 23.4522H165.743C165.552 23.4522 165.408 23.2966 165.408 23.1172V21.8129C165.408 21.4899 165.013 21.3583 164.81 21.5976C163.757 22.842 162.094 23.5718 159.904 23.5718C156.47 23.5718 154.388 21.8129 154.388 19.2045C154.388 16.8832 155.848 14.9209 160.108 14.9209H165.013C165.205 14.9209 165.349 14.7654 165.349 14.5859V13.4612C165.349 10.9604 163.542 9.09383 160.802 9.09383C158.839 9.09383 157.057 9.77585 155.8 10.7929C155.645 10.9126 155.417 10.8886 155.31 10.7211L154.963 10.2305C154.867 10.087 154.891 9.88354 155.022 9.77585C156.542 8.54343 158.684 7.80158 160.957 7.81354C164.2 7.82551 166.808 10.4579 166.808 13.6885ZM165.349 18.8216V16.4286C165.349 16.2371 165.193 16.0935 165.013 16.0935H160.132C156.961 16.0935 155.848 17.4097 155.848 19.1686C155.848 21.1668 157.404 22.3992 160.096 22.3992C162.62 22.3992 164.391 21.2147 165.289 19.0968C165.325 19.0011 165.349 18.9054 165.349 18.8216Z" fill="white"/>
<path d="M178.726 8.04087V8.78272C178.726 8.97417 178.57 9.11775 178.379 9.11775C174.981 9.11775 172.958 11.3792 172.958 15.1602V23.153C172.958 23.3325 172.815 23.4881 172.623 23.4881H171.822C171.642 23.4881 171.487 23.3445 171.487 23.153V8.14856C171.487 7.96908 171.63 7.81353 171.822 7.81353H172.564C172.743 7.81353 172.899 7.95711 172.899 8.14856V9.87156C172.899 10.1946 173.317 10.3262 173.509 10.063C174.538 8.60324 176.201 7.7896 178.391 7.70585C178.57 7.69388 178.726 7.84943 178.726 8.04087Z" fill="white"/>
<path d="M186.826 15.184L183.213 18.4745C183.141 18.5343 183.105 18.63 183.105 18.7258V23.129C183.105 23.3204 182.95 23.464 182.77 23.464H181.98C181.789 23.464 181.645 23.3085 181.645 23.129V2.05811C181.645 1.86667 181.801 1.72308 181.98 1.72308H182.77C182.962 1.72308 183.105 1.87863 183.105 2.05811V15.9857C183.105 16.2848 183.452 16.4404 183.667 16.237L192.797 7.90914C192.857 7.84931 192.941 7.82538 193.024 7.82538H193.91C194.221 7.82538 194.364 8.1963 194.137 8.41168L188.394 13.7961C188.262 13.9157 188.25 14.1191 188.358 14.2507L194.963 22.9256C195.142 23.1529 194.987 23.476 194.699 23.476H193.742C193.635 23.476 193.539 23.4281 193.479 23.3444L187.293 15.2199C187.197 15.0644 186.97 15.0524 186.826 15.184Z" fill="white"/>
<path d="M203.47 23.5C198.792 23.5 195.525 20.2813 195.525 15.6747C195.525 11.1399 198.624 7.8494 202.908 7.8494C207.167 7.8494 210.266 11.1159 210.266 15.6149C210.266 15.6388 210.266 15.6747 210.266 15.7106C210.254 15.8422 210.147 15.9499 210.003 15.9499H197.284C197.164 15.9499 197.045 15.9978 196.961 16.0935C196.877 16.1772 196.841 16.2969 196.853 16.4166C197.164 19.9583 199.845 22.3274 203.518 22.3274C205.444 22.3274 207.155 21.6454 208.316 20.413C208.364 20.3531 208.436 20.3292 208.507 20.3292C208.579 20.3292 208.651 20.3651 208.699 20.413L209.106 20.8796C209.189 20.9753 209.189 21.1309 209.106 21.2266C207.754 22.6864 205.755 23.5 203.47 23.5ZM202.896 8.9861C199.689 8.9861 197.272 11.1877 196.877 14.4662C196.865 14.5859 196.901 14.7055 196.985 14.8012C197.069 14.897 197.188 14.9448 197.308 14.9448H208.495C208.615 14.9448 208.735 14.897 208.818 14.8012C208.902 14.7055 208.938 14.5859 208.926 14.4662C208.555 11.2356 206.078 8.9861 202.896 8.9861Z" fill="white"/>
<path d="M220.951 22.2555C221.035 22.3991 221.011 22.5905 220.879 22.6982C220.114 23.2965 219.001 23.5836 217.96 23.5836C215.268 23.5836 213.796 22.0042 213.796 19.4197V9.41672C213.796 9.22528 213.64 9.0817 213.461 9.0817H211.319C211.128 9.0817 210.984 8.92614 210.984 8.74666V8.16037C210.984 7.96892 211.14 7.82534 211.319 7.82534H213.461C213.652 7.82534 213.796 7.66978 213.796 7.49031V5.181C213.796 4.98956 213.952 4.84598 214.131 4.84598H214.921C215.112 4.84598 215.256 5.00153 215.256 5.181V7.49031C215.256 7.68175 215.411 7.82534 215.591 7.82534H219.779C219.97 7.82534 220.114 7.98089 220.114 8.16037V8.74666C220.114 8.93811 219.958 9.0817 219.779 9.0817H215.591C215.399 9.0817 215.256 9.23724 215.256 9.41672V19.2761C215.256 21.2384 216.225 22.3273 218.103 22.3273C218.881 22.3273 219.611 22.1119 220.197 21.7051C220.353 21.5974 220.58 21.6453 220.676 21.8128L220.951 22.2555Z" fill="white"/>
<path d="M15.5429 31.0858C24.127 31.0858 31.0858 24.127 31.0858 15.5429C31.0858 6.9588 24.127 0 15.5429 0C6.9588 0 0 6.9588 0 15.5429C0 24.127 6.9588 31.0858 15.5429 31.0858Z" fill="white"/>
<path d="M15.5429 11.5346C17.7564 11.5346 19.5512 13.3294 19.5512 15.543C19.5512 17.7566 17.7564 19.5514 15.5429 19.5514C13.3293 19.5514 11.5345 17.7566 11.5345 15.543C11.5345 13.3294 13.3293 11.5346 15.5429 11.5346ZM15.5429 8.18432C11.4747 8.18432 8.1842 11.4748 8.1842 15.543C8.1842 19.6112 11.4747 22.9016 15.5429 22.9016C19.6111 22.9016 22.9015 19.6112 22.9015 15.543C22.9015 11.4748 19.6111 8.18432 15.5429 8.18432Z" fill="white"/>
<path d="M20.2213 9.85952C18.953 8.80657 17.3257 8.18438 15.5429 8.18438C14.9327 8.18438 14.3344 8.25617 13.772 8.39975L11.4268 6.19813C10.7568 5.56397 10.7209 4.49906 11.355 3.82901C11.9892 3.15895 13.0541 3.12306 13.7242 3.75722L20.2213 9.85952Z" fill="url(#paint0_linear_39_406)"/>
<path d="M27.0774 19.3717L17.7923 22.5545C17.6966 22.5784 17.6128 22.6143 17.5171 22.6263C20.0418 21.9203 22.028 19.8982 22.6742 17.3376L25.9886 16.2009C26.862 15.9018 27.8192 16.3684 28.1184 17.2419C28.4175 18.1153 27.9628 19.0726 27.0774 19.3717Z" fill="url(#paint1_linear_39_406)"/>
<path d="M20.2213 9.85946C18.953 8.80651 17.3257 8.18432 15.5429 8.18432C14.9326 8.18432 14.3344 8.25611 13.772 8.39969C10.5653 9.1894 8.1842 12.085 8.1842 15.543C8.1842 19.6112 11.4747 22.9016 15.5429 22.9016C16.2249 22.9016 16.8949 22.8059 17.5171 22.6384C20.0418 21.9324 22.0281 19.9103 22.6742 17.3497C22.8178 16.7754 22.9015 16.1771 22.9015 15.5549C22.9015 13.2576 21.8605 11.2115 20.2213 9.85946ZM11.5345 15.543C11.5345 13.3294 13.3293 11.5346 15.5429 11.5346C16.4881 11.5346 17.3496 11.8577 18.0436 12.4081C18.1633 12.5038 18.271 12.5995 18.3786 12.7072C19.1085 13.4371 19.5632 14.4422 19.5632 15.543C19.5632 17.7566 17.7684 19.5514 15.5548 19.5514C13.3293 19.5514 11.5345 17.7446 11.5345 15.543Z" fill="#0000FF"/>
<path d="M9.85935 26.2997C8.93802 26.2997 8.1842 25.5458 8.1842 24.6245V15.3873C8.1842 14.466 8.93802 13.7122 9.85935 13.7122C10.7807 13.7122 11.5345 14.466 11.5345 15.3873V24.6245C11.5345 25.5458 10.7926 26.2997 9.85935 26.2997Z" fill="#0000FF"/>
<defs>
<linearGradient id="paint0_linear_39_406" x1="14.4524" y1="2.56879" x2="16.0078" y2="9.50866" gradientUnits="userSpaceOnUse">
<stop stop-color="#0000FF"/>
<stop offset="0.1221" stop-color="#0404FF"/>
<stop offset="0.2472" stop-color="#1010FF"/>
<stop offset="0.3737" stop-color="#2525FF"/>
<stop offset="0.5012" stop-color="#4242FF"/>
<stop offset="0.6296" stop-color="#6767FF"/>
<stop offset="0.7587" stop-color="#9494FF"/>
<stop offset="0.8858" stop-color="#C9C9FF"/>
<stop offset="1" stop-color="white"/>
</linearGradient>
<linearGradient id="paint1_linear_39_406" x1="28.6537" y1="20.26" x2="19.8593" y2="19.0634" gradientUnits="userSpaceOnUse">
<stop stop-color="#0000FF"/>
<stop offset="0.1418" stop-color="#0404FF"/>
<stop offset="0.2695" stop-color="#0F0FFF"/>
<stop offset="0.3918" stop-color="#2121FF"/>
<stop offset="0.511" stop-color="#3B3BFF"/>
<stop offset="0.6277" stop-color="#5C5CFF"/>
<stop offset="0.7427" stop-color="#8585FF"/>
<stop offset="0.8562" stop-color="#B6B6FF"/>
<stop offset="0.9659" stop-color="#ECECFF"/>
<stop offset="1" stop-color="white"/>
</linearGradient>
</defs>
</svg>
