<svg width="33" height="33" viewBox="0 0 33 33" fill="none" xmlns="http://www.w3.org/2000/svg">
<path fill-rule="evenodd" clip-rule="evenodd" d="M10.4544 27.7966L6.12828 23.4705C5.3782 22.7199 4.95703 21.7022 4.95703 20.641V13.2854C4.95703 12.2241 5.37904 11.2063 6.12961 10.456L10.4558 6.12986C11.2061 5.37929 12.2239 4.95728 13.2852 4.95728H20.6408C21.7021 4.95728 22.7199 5.37929 23.4702 6.12986L27.7977 10.4573C28.5478 11.2079 28.9689 12.2256 28.9689 13.2867V20.641C28.9689 21.7022 28.5478 22.7199 27.7977 23.4705L23.4715 27.7979C22.7207 28.5483 21.7024 28.9697 20.6408 28.9692H13.2852C12.2234 28.9692 11.2051 28.5475 10.4544 27.7966V27.7966Z" stroke="#0000FF" stroke-width="1.69894" stroke-linecap="round" stroke-linejoin="round"/>
<path fill-rule="evenodd" clip-rule="evenodd" d="M14.8364 12.4765L20.5549 15.8901C21.2781 16.3213 21.2781 17.3784 20.5549 17.8096L14.8364 21.2232C14.0999 21.6633 13.1689 21.1266 13.1689 20.2628V13.4369C13.1689 12.5731 14.0999 12.0364 14.8364 12.4765V12.4765Z" stroke="#0000FF" stroke-width="1.69894" stroke-linecap="round" stroke-linejoin="round"/>
</svg>
