<svg width="57" height="56" viewBox="0 0 57 56" fill="none" xmlns="http://www.w3.org/2000/svg">
<path d="M42.6448 30.3335V32.6668" stroke="#0000FF" stroke-width="3" stroke-linecap="round" stroke-linejoin="round"/>
<path d="M28.6446 28V42" stroke="#0000FF" stroke-width="3" stroke-linecap="round" stroke-linejoin="round"/>
<path d="M16.5927 20.8999C15.3179 23.049 14.6449 25.5015 14.6444 28.0002V32.6669" stroke="#0000FF" stroke-width="3" stroke-linecap="round" stroke-linejoin="round"/>
<path d="M41.8256 23.3334C40.441 19.3886 37.3608 16.2723 33.4324 14.8418C29.504 13.4114 25.1412 13.8175 21.5443 15.9484" stroke="#0000FF" stroke-width="3" stroke-linecap="round" stroke-linejoin="round"/>
<path fill-rule="evenodd" clip-rule="evenodd" d="M17.2602 46.949L9.69323 39.382C8.38124 38.0692 7.64456 36.289 7.64456 34.433V21.567C7.64456 19.7106 8.38272 17.9304 9.69556 16.618L17.2626 9.051C18.575 7.73815 20.3552 7 22.2116 7H35.0776C36.9339 7 38.7141 7.73815 40.0266 9.051L47.5959 16.6203C48.9079 17.9332 49.6446 19.7133 49.6446 21.5693V34.433C49.6446 36.289 48.9079 38.0692 47.5959 39.382L40.0289 46.9513C38.7155 48.2639 36.9344 49.0008 35.0776 49H22.2116C20.3544 49 18.5732 48.2624 17.2602 46.949V46.949Z" stroke="#0000FF" stroke-width="3" stroke-linecap="round" stroke-linejoin="round"/>
<path d="M35.6447 39.6667V28C35.6447 24.134 32.5107 21 28.6447 21C24.7788 21 21.6447 24.134 21.6447 28V30.3333" stroke="#0000FF" stroke-width="3" stroke-linecap="round" stroke-linejoin="round"/>
<path d="M21.6447 37.3335V39.6668" stroke="#0000FF" stroke-width="3" stroke-linecap="round" stroke-linejoin="round"/>
</svg>
