<svg width="33" height="33" viewBox="0 0 33 33" fill="none" xmlns="http://www.w3.org/2000/svg">
<path fill-rule="evenodd" clip-rule="evenodd" d="M9.83919 27.8254L5.51304 23.4993C4.76296 22.7487 4.3418 21.731 4.3418 20.6699V13.3142C4.3418 12.2529 4.76381 11.2352 5.51438 10.4848L9.84052 6.15867C10.5909 5.4081 11.6086 4.98608 12.6699 4.98608H20.0256C21.0869 4.98608 22.1046 5.4081 22.855 6.15867L27.1825 10.4861C27.9325 11.2367 28.3537 12.2544 28.3537 13.3155V20.6699C28.3537 21.731 27.9325 22.7487 27.1825 23.4993L22.8563 27.8267C22.1054 28.5771 21.0871 28.9985 20.0256 28.998H12.6699C11.6082 28.998 10.5899 28.5763 9.83919 27.8254V27.8254Z" stroke="#0000FF" stroke-width="1.69894" stroke-linecap="round" stroke-linejoin="round"/>
<path fill-rule="evenodd" clip-rule="evenodd" d="M10.542 14.4587C10.542 13.2772 11.5562 12.3193 12.8072 12.3193H19.603C20.8541 12.3193 21.8682 13.2772 21.8682 14.4587V18.2027C21.8682 19.3843 20.7356 20.2477 19.603 20.3421V23.3624L15.1394 20.3421H12.8072C11.5562 20.3421 10.542 19.3843 10.542 18.2027V14.4587Z" stroke="#0000FF" stroke-width="1.69894" stroke-linecap="round" stroke-linejoin="round"/>
</svg>
