<svg width="32" height="32" viewBox="0 0 32 32" fill="none" xmlns="http://www.w3.org/2000/svg">
<path fill-rule="evenodd" clip-rule="evenodd" d="M9.48999 26.8147L5.16813 22.4929C4.4188 21.7431 3.99805 20.7263 3.99805 19.6663V12.3179C3.99805 11.2577 4.41964 10.2409 5.16947 9.49132L9.49132 5.16947C10.2409 4.41964 11.2577 3.99805 12.3179 3.99805H19.6663C20.7265 3.99805 21.7433 4.41964 22.4929 5.16947L26.8161 9.49265C27.5654 10.2425 27.9861 11.2592 27.9861 12.3193V19.6663C27.9861 20.7263 27.5654 21.7431 26.8161 22.4929L22.4942 26.8161C21.7441 27.5657 20.7268 27.9866 19.6663 27.9861H12.3179C11.2572 27.9861 10.2399 27.5649 9.48999 26.8147V26.8147Z" stroke="#0000FF" stroke-width="1.69725" stroke-linecap="round" stroke-linejoin="round"/>
<path fill-rule="evenodd" clip-rule="evenodd" d="M15.7604 13.3798C12.2663 13.777 9.62654 16.7409 9.62695 20.2663V20.7044C11.1444 18.8713 13.3846 17.7938 15.7604 17.7542V20.0658C15.7605 20.4013 15.9517 20.7073 16.2528 20.8538C16.5539 21.0002 16.912 20.9614 17.1749 20.7539L22.8837 16.2334C23.0866 16.0734 23.205 15.8289 23.205 15.5701C23.205 15.3113 23.0866 15.0668 22.8837 14.9068L17.1749 10.3802C16.912 10.1726 16.5539 10.1338 16.2528 10.2803C15.9517 10.4267 15.7605 10.7327 15.7604 11.0682V13.3798Z" stroke="#0000FF" stroke-width="1.69725" stroke-linecap="round" stroke-linejoin="round"/>
</svg>
