<svg width="56" height="56" viewBox="0 0 56 56" fill="none" xmlns="http://www.w3.org/2000/svg">
<path d="M42 18.6667V11.6667C42 9.08833 39.9117 7 37.3333 7H11.6667C9.08833 7 7 9.08833 7 11.6667V44.3333C7 46.9117 9.08833 49 11.6667 49H18.6667" stroke="#0000FF" stroke-width="3" stroke-linecap="round" stroke-linejoin="round"/>
<path fill-rule="evenodd" clip-rule="evenodd" d="M17.5 39.6665V39.6665C15.568 39.6665 14 38.0985 14 36.1665V36.1665C14 34.2345 15.568 32.6665 17.5 32.6665V32.6665C19.432 32.6665 21 34.2345 21 36.1665V36.1665C21 38.0985 19.432 39.6665 17.5 39.6665Z" stroke="#0000FF" stroke-width="3" stroke-linecap="round" stroke-linejoin="round"/>
<path fill-rule="evenodd" clip-rule="evenodd" d="M49 45.7007V43.6823C49 42.679 48.3583 41.7853 47.404 41.468L42 39.6667V35L43.6263 33.9593C44.8233 33.1917 45.381 31.731 44.996 30.3613V30.3613C44.604 28.9637 43.3323 28 41.881 28H35.119C33.67 28 32.396 28.9637 32.004 30.3613V30.3613C31.619 31.731 32.1767 33.1917 33.3737 33.9593L35 35V39.6667L29.596 41.468C28.6417 41.7853 28 42.6767 28 43.6823V45.7007C28 46.319 28.245 46.914 28.6837 47.3503L29.6497 48.3163C30.0883 48.755 30.681 49 31.2993 49H45.7007C46.319 49 46.914 48.755 47.3503 48.3163L48.3163 47.3503C48.755 46.9117 49 46.319 49 45.7007Z" stroke="#0000FF" stroke-width="3" stroke-linecap="round" stroke-linejoin="round"/>
<path d="M14 16.3332H32.6667" stroke="#0000FF" stroke-width="3" stroke-linecap="round" stroke-linejoin="round"/>
<path d="M14 24.5002H23.3333" stroke="#0000FF" stroke-width="3" stroke-linecap="round" stroke-linejoin="round"/>
</svg>
