<svg width="32" height="32" viewBox="0 0 32 32" fill="none" xmlns="http://www.w3.org/2000/svg">
<path fill-rule="evenodd" clip-rule="evenodd" d="M9.70487 26.4984L5.42679 22.2203C4.68504 21.4781 4.26855 20.4717 4.26855 19.4224V12.1484C4.26855 11.0989 4.68588 10.0925 5.42811 9.35047L9.70619 5.07239C10.4482 4.33016 11.4546 3.91284 12.5042 3.91284H19.7781C20.8276 3.91284 21.834 4.33016 22.576 5.07239L26.8554 9.35179C27.5972 10.094 28.0137 11.1004 28.0137 12.1498V19.4224C28.0137 20.4717 27.5972 21.4781 26.8554 22.2203L22.5774 26.4997C21.8348 27.2418 20.8279 27.6584 19.7781 27.658H12.5042C11.4542 27.658 10.4472 27.241 9.70487 26.4984V26.4984Z" stroke="#0000FF" stroke-width="1.68006" stroke-linecap="round" stroke-linejoin="round"/>
<path d="M16.0288 19.5085L18.7168 20.9089C19.2397 21.1819 19.8513 20.741 19.7516 20.1636L19.2383 17.1949L21.413 15.093C21.8362 14.6835 21.6028 13.9696 21.0171 13.885L18.0137 13.4523L16.669 10.7484C16.4069 10.2216 15.6506 10.2216 15.3899 10.7484L14.0465 13.4523L11.0404 13.8864C10.4561 13.971 10.2213 14.6848 10.6445 15.0943L12.8192 17.1963L12.3059 20.165C12.2063 20.7424 12.8179 21.1846 13.3407 20.9102L16.0288 19.5098" stroke="#0000FF" stroke-width="1.68006" stroke-linecap="round" stroke-linejoin="round"/>
</svg>
