<svg width="27" height="27" viewBox="0 0 27 27" fill="none" xmlns="http://www.w3.org/2000/svg">
<path fill-rule="evenodd" clip-rule="evenodd" d="M13.5 27C20.9558 27 27 20.9558 27 13.5C27 6.04416 20.9558 0 13.5 0C6.04416 0 0 6.04416 0 13.5C0 20.9558 6.04416 27 13.5 27ZM8.74948 14.2851L5.328 13.1231C4.89944 12.9776 4.88793 12.3757 5.31059 12.2138L18.7842 7.05444C19.3812 6.82581 19.9929 7.35262 19.8554 7.97693L17.4452 18.9207C17.3446 19.3777 16.8043 19.5768 16.4312 19.2943L12.9697 16.6739L11.0762 18.5359C10.9039 18.7053 10.6135 18.5711 10.6309 18.33L10.8596 15.161L17.0093 9.50051C17.1109 9.40703 16.9902 9.24711 16.8725 9.31913L8.74948 14.2851Z" fill="#8293A9"/>
</svg>
