<svg width="74" height="12" viewBox="0 0 74 12" fill="none" xmlns="http://www.w3.org/2000/svg">
<path d="M4.422 11.8887C4.06534 11.8173 3.71681 11.7113 3.38147 11.5725C3.05228 11.4358 2.7374 11.2682 2.44106 11.0721C2.14706 10.8773 1.87265 10.6554 1.62169 10.4094C1.37068 10.1633 1.14421 9.89429 0.945341 9.60601C0.745215 9.31558 0.574264 9.00684 0.434863 8.68411C0.293368 8.35536 0.185501 8.01369 0.112677 7.6641C0.0375573 7.30406 -0.000227213 6.9375 1.02784e-06 6.57001V0.570007L1.82777 0C1.81429 0.126169 1.80743 0.252939 1.80744 0.379797V2.2116L7.28581 0.581708V2.44709L1.80744 4.1202V6.50911C1.8085 7.47845 2.20178 8.40779 2.90103 9.09322C3.60027 9.77865 4.54837 10.1642 5.53725 10.1652C6.52629 10.1644 7.47463 9.77899 8.17407 9.09353C8.87351 8.40808 9.2669 7.4786 9.26795 6.50911V5.50831L3.62998 7.1532V5.22841L10.7444 3.20911L11.0761 3.11461V6.57001C11.0762 6.93748 11.0385 7.30401 10.9638 7.6641C10.8908 8.01372 10.7827 8.35539 10.641 8.68411C10.5017 9.00686 10.3309 9.3156 10.1308 9.60601C9.93197 9.89432 9.7055 10.1633 9.45445 10.4094C9.20347 10.6553 8.92906 10.8772 8.63508 11.0721C8.33871 11.2683 8.02373 11.4359 7.69438 11.5725C7.35903 11.7113 7.01035 11.8173 6.6537 11.8887C6.28637 11.9621 5.91244 11.9991 5.53755 11.9991C5.16286 11.9991 4.78912 11.9621 4.422 11.8887Z" fill="#C2C3CA"/>
<path d="M19.0585 8.90142H20.1548V4.00861H21.0586C21.0836 4.00534 21.109 4.00773 21.1329 4.01561C21.1567 4.02348 21.1784 4.03662 21.1962 4.05401C21.214 4.0714 21.2275 4.09256 21.2356 4.11585C21.2436 4.13914 21.2461 4.16394 21.2427 4.18831V4.53838H22.2111V3.62469C22.2111 3.24078 22.0689 3.09959 21.6731 3.09959H17.527C17.1337 3.09959 16.9998 3.23845 16.9998 3.62469V4.53955H17.9622V4.18947C17.9586 4.16502 17.9609 4.14009 17.9689 4.11664C17.9769 4.0932 17.9903 4.07188 18.0081 4.05435C18.026 4.03683 18.0477 4.02358 18.0717 4.01564C18.0957 4.0077 18.1212 4.0053 18.1463 4.00861H19.0585V8.90142ZM23.3098 5.96083C23.3001 6.35901 23.3726 6.75503 23.523 7.1253C23.6733 7.49557 23.8985 7.8325 24.1851 8.11604C24.4717 8.39958 24.8139 8.62391 25.1911 8.77568C25.5684 8.92745 25.9731 9.00355 26.3812 8.99944C26.7892 9.00355 27.194 8.92745 27.5713 8.77568C27.9485 8.62391 28.2907 8.39958 28.5773 8.11604C28.8639 7.8325 29.089 7.49557 29.2394 7.1253C29.3898 6.75503 29.4623 6.35901 29.4526 5.96083C29.4563 5.56803 29.3792 5.1785 29.2256 4.81539C29.0721 4.45228 28.8453 4.12301 28.5588 3.84716C28.2723 3.57131 27.9319 3.35451 27.5578 3.20964C27.1837 3.06478 26.7835 2.99481 26.3812 3.0039C25.9788 2.99481 25.5787 3.06478 25.2046 3.20964C24.8305 3.35451 24.4901 3.57131 24.2036 3.84716C23.9171 4.12301 23.6903 4.45228 23.5367 4.81539C23.3832 5.1785 23.306 5.56803 23.3098 5.96083ZM24.4456 5.96083C24.438 5.70736 24.4824 5.45497 24.5761 5.21845C24.6698 4.98193 24.8109 4.76605 24.9912 4.58346C25.1714 4.40087 25.3872 4.25525 25.6259 4.15514C25.8646 4.05502 26.1214 4.00243 26.3812 4.00044C26.6408 4.00274 26.8973 4.05556 27.1357 4.15581C27.3741 4.25606 27.5897 4.40173 27.7697 4.58429C27.9497 4.76685 28.0906 4.98263 28.1841 5.21899C28.2777 5.45535 28.322 5.70756 28.3144 5.96083C28.3275 6.21942 28.2876 6.47795 28.197 6.7213C28.1065 6.96466 27.9672 7.18794 27.7871 7.3781C27.6071 7.56825 27.3901 7.72145 27.1487 7.82873C26.9072 7.93602 26.6463 7.99523 26.3812 8.00291C26.1161 7.99523 25.8552 7.93602 25.6137 7.82873C25.3723 7.72145 25.1553 7.56825 24.9753 7.3781C24.7952 7.18794 24.6559 6.96466 24.5654 6.7213C24.4748 6.47795 24.4349 6.21942 24.448 5.96083H24.4456ZM30.7892 5.96083C30.7794 6.35921 30.852 6.75543 31.0025 7.12585C31.153 7.49627 31.3784 7.83332 31.6653 8.11689C31.9521 8.40046 32.2946 8.62474 32.6721 8.77637C33.0497 8.928 33.4547 9.00386 33.8629 8.99944C34.271 9.00355 34.6757 8.92745 35.053 8.77568C35.4303 8.62391 35.7724 8.39958 36.059 8.11604C36.3456 7.8325 36.5708 7.49557 36.7211 7.1253C36.8715 6.75503 36.944 6.35901 36.9343 5.96083C36.9381 5.56803 36.8609 5.1785 36.7074 4.81539C36.5538 4.45228 36.3271 4.12301 36.0405 3.84716C35.754 3.57131 35.4136 3.35451 35.0395 3.20964C34.6654 3.06478 34.2653 2.99481 33.8629 3.0039C33.4606 2.99481 33.0604 3.06478 32.6864 3.20964C32.3123 3.35451 31.9718 3.57131 31.6853 3.84716C31.3988 4.12301 31.172 4.45228 31.0185 4.81539C30.8649 5.1785 30.7878 5.56803 30.7916 5.96083H30.7892ZM31.9249 5.96083C31.9174 5.70717 31.9618 5.45458 32.0556 5.21791C32.1495 4.98124 32.2908 4.76525 32.4713 4.58263C32.6518 4.40001 32.8679 4.25444 33.1069 4.15446C33.3459 4.05448 33.6029 4.00212 33.8629 4.00044C34.1225 4.00274 34.379 4.05556 34.6174 4.15581C34.8559 4.25606 35.0714 4.40173 35.2514 4.58429C35.4314 4.76685 35.5723 4.98263 35.6659 5.21899C35.7594 5.45535 35.8037 5.70756 35.7961 5.96083C35.8092 6.21942 35.7693 6.47795 35.6788 6.7213C35.5882 6.96466 35.4489 7.18794 35.2689 7.3781C35.0888 7.56825 34.8718 7.72145 34.6304 7.82873C34.389 7.93602 34.1281 7.99523 33.8629 8.00291C33.5978 7.99523 33.3369 7.93602 33.0955 7.82873C32.8541 7.72145 32.637 7.56825 32.457 7.3781C32.277 7.18794 32.1376 6.96466 32.0471 6.7213C31.9565 6.47795 31.9166 6.21942 31.9297 5.96083H31.9249ZM38.8089 8.34598C38.8089 8.73806 38.9846 8.90142 39.378 8.90142H41.9974C42.3991 8.90142 42.5665 8.73806 42.5665 8.34598V7.4638H41.579V7.81387C41.5816 7.8381 41.5786 7.8626 41.5703 7.88557C41.562 7.90854 41.5485 7.92941 41.5309 7.94664C41.5132 7.96387 41.4918 7.97702 41.4683 7.98514C41.4448 7.99327 41.4197 7.99615 41.3949 7.99357H40.0893C40.0645 7.99615 40.0394 7.99327 40.0159 7.98514C39.9923 7.97702 39.9709 7.96387 39.9533 7.94664C39.9356 7.92941 39.9222 7.90854 39.9138 7.88557C39.9055 7.8626 39.9026 7.8381 39.9052 7.81387V3.65737C39.9052 3.27346 39.7378 3.10192 39.3445 3.10192H38.2649V4.00861H38.6236C38.6484 4.00603 38.6735 4.00891 38.697 4.01703C38.7206 4.02515 38.742 4.03831 38.7596 4.05554C38.7773 4.07277 38.7907 4.09363 38.7991 4.11661C38.8074 4.13958 38.8103 4.16408 38.8077 4.18831L38.8089 8.34598ZM43.8469 8.90142H46.0814V7.99474H45.4872V4.00861H46.0814V3.10192H43.8469V4.00861H44.4483V7.99474H43.8469V8.90142ZM47.4622 5.969C47.4353 6.35589 47.4898 6.74406 47.6226 7.10957C47.7553 7.47507 47.9633 7.81015 48.2339 8.09413C48.5044 8.3781 48.8318 8.60494 49.1956 8.76065C49.5595 8.91635 49.9522 8.99762 50.3495 8.99944C50.9922 9.01267 51.6167 8.79035 52.0998 8.37632H52.1165C52.1165 8.37632 52.1081 8.49884 52.1081 8.62137V8.90142H53.0442V6.42642C53.0442 6.04251 52.8769 5.87915 52.4835 5.87915H51.5127V6.78583H51.8714C51.8964 6.78256 51.9218 6.78496 51.9456 6.79283C51.9695 6.80071 51.9912 6.81385 52.009 6.83123C52.0268 6.84862 52.0403 6.86978 52.0484 6.89308C52.0564 6.91637 52.0589 6.94116 52.0555 6.96553V7.39845C51.6553 7.78683 51.1135 8.00424 50.5491 8.00291C50.2806 8.00387 50.0147 7.95061 49.7682 7.84649C49.5217 7.74237 49.3 7.58963 49.1169 7.39787C48.9338 7.2061 48.7932 6.97945 48.7042 6.73216C48.6151 6.48486 48.5793 6.22225 48.5992 5.96083C48.5873 5.70815 48.6277 5.45572 48.718 5.21861C48.8083 4.98151 48.9466 4.76461 49.1247 4.58086C49.3028 4.39711 49.5171 4.25028 49.7546 4.14915C49.9922 4.04803 50.2481 3.99467 50.5073 3.99227C51.0588 3.99802 51.5933 4.17864 52.0304 4.50687L52.6497 3.73905C52.056 3.22811 51.281 2.96424 50.4906 3.0039C50.0902 2.99732 49.6926 3.06958 49.3215 3.21638C48.9504 3.36317 48.6135 3.58149 48.3308 3.85827C48.0481 4.13506 47.8255 4.46463 47.6762 4.82729C47.527 5.18995 47.4542 5.57826 47.4622 5.969ZM54.9858 8.90142H56.0821V6.73682H56.6345C56.9525 6.73682 57.0696 6.77766 57.1952 7.00637L57.9651 8.4685C58.1576 8.83608 58.3501 8.90142 58.7936 8.90142H59.3627V7.99474H59.2539C59.0698 7.99474 58.9275 7.9784 58.8438 7.80687L58.2568 6.68781C58.1929 6.56299 58.0905 6.46093 57.9639 6.39608V6.37975C58.2769 6.26457 58.5431 6.05343 58.7227 5.77801C58.9022 5.5026 58.9854 5.17777 58.9598 4.85227C58.9723 4.61447 58.9326 4.3768 58.8432 4.15521C58.7539 3.93363 58.6171 3.73323 58.442 3.56748C58.2668 3.40172 58.0574 3.27442 57.8277 3.19413C57.598 3.11384 57.3534 3.0824 57.1103 3.10192H54.4418V4.00861H54.9858V8.90142ZM56.0821 5.82197V4.00861H56.9692C57.0897 4.00053 57.2105 4.01873 57.3228 4.06187C57.4352 4.10502 57.5363 4.17204 57.6188 4.25806C57.7014 4.34409 57.7632 4.44696 57.8 4.55923C57.8367 4.67149 57.8474 4.79033 57.8312 4.90712C57.8479 5.02616 57.8371 5.14733 57.7997 5.2618C57.7624 5.37627 57.6993 5.48116 57.6151 5.56881C57.5309 5.65646 57.4277 5.72467 57.3131 5.76847C57.1985 5.81227 57.0753 5.83054 56.9525 5.82197H56.0821ZM60.4423 8.90142H61.1034C61.5219 8.90142 61.6725 8.79523 61.798 8.42766L62.1746 7.41479H64.1748L64.5514 8.42766C64.6769 8.79523 64.8275 8.90142 65.246 8.90142H65.8987V7.99474H65.7648C65.6226 7.99474 65.564 7.96207 65.5054 7.81504L63.748 3.10192H62.6014L60.8356 7.81504C60.7854 7.96207 60.7268 7.99474 60.5845 7.99474H60.4423V8.90142ZM62.4257 6.53261L62.9278 5.07865C63.0366 4.76009 63.1621 4.21281 63.1621 4.21281H63.1789C63.1789 4.21281 63.3128 4.76009 63.4216 5.07865L63.9321 6.53261H62.4257ZM67.0202 8.90142H67.9658C68.3592 8.90142 68.5038 8.73806 68.5265 8.34598L68.7274 5.76479C68.7468 5.46293 68.7496 5.16026 68.7358 4.85811H68.7525C68.7525 4.85811 68.9366 5.43806 69.0789 5.76479L70.0664 7.90489H70.9535L71.941 5.76479C72.0652 5.47081 72.1741 5.17093 72.2674 4.86628H72.2841C72.2703 5.16571 72.2731 5.46566 72.2925 5.76479L72.4934 8.34598C72.5185 8.73806 72.6607 8.90142 73.0541 8.90142H73.9998V7.99474H73.7391C73.6196 7.99474 73.5634 7.92939 73.555 7.81504L73.1712 3.10192H72.0355L70.81 5.86281C70.6678 6.19771 70.5171 6.6388 70.5171 6.6388H70.5004C70.5004 6.6388 70.3498 6.19771 70.2075 5.86281L68.9868 3.10192H67.8511L67.4625 7.81504C67.4541 7.93173 67.3956 7.99474 67.2784 7.99474H67.0202V8.90142Z" fill="#C2C3CA"/>
</svg>
