<svg width="32" height="32" viewBox="0 0 32 32" fill="none" xmlns="http://www.w3.org/2000/svg">
<path fill-rule="evenodd" clip-rule="evenodd" d="M9.48999 26.8147L5.16813 22.4929C4.4188 21.7431 3.99805 20.7263 3.99805 19.6663V12.3179C3.99805 11.2577 4.41964 10.2409 5.16947 9.49132L9.49132 5.16947C10.2409 4.41964 11.2577 3.99805 12.3179 3.99805H19.6663C20.7265 3.99805 21.7433 4.41964 22.4929 5.16947L26.8161 9.49265C27.5654 10.2425 27.9861 11.2592 27.9861 12.3193V19.6663C27.9861 20.7263 27.5654 21.7431 26.8161 22.4929L22.4942 26.8161C21.7441 27.5657 20.7268 27.9866 19.6663 27.9861H12.3179C11.2572 27.9861 10.2399 27.5649 9.48999 26.8147V26.8147Z" stroke="#0000FF" stroke-width="1.69725" stroke-linecap="round" stroke-linejoin="round"/>
<path d="M12.8457 14.8242C13.4967 15.4752 13.4967 16.5307 12.8457 17.1817C12.1947 17.8327 11.1393 17.8327 10.4883 17.1817C9.83725 16.5307 9.83725 15.4752 10.4883 14.8242C11.1393 14.1732 12.1947 14.1732 12.8457 14.8242" stroke="#0000FF" stroke-width="1.7" stroke-linecap="round" stroke-linejoin="round"/>
<path d="M13.1484 16.7422L16.8484 18.5922" stroke="#0000FF" stroke-width="1.7" stroke-linecap="round" stroke-linejoin="round"/>
<path d="M16.8484 13.4062L13.1484 15.2563" stroke="#0000FF" stroke-width="1.7" stroke-linecap="round" stroke-linejoin="round"/>
<path d="M19.5098 11.4883C20.1608 12.1393 20.1608 13.1947 19.5098 13.8457C18.8588 14.4967 17.8033 14.4967 17.1523 13.8457C16.5013 13.1947 16.5013 12.1393 17.1523 11.4883C17.8033 10.8372 18.8588 10.8372 19.5098 11.4883" stroke="#0000FF" stroke-width="1.7" stroke-linecap="round" stroke-linejoin="round"/>
<path d="M19.5098 18.1523C20.1608 18.8033 20.1608 19.8588 19.5098 20.5098C18.8588 21.1608 17.8033 21.1608 17.1523 20.5098C16.5013 19.8588 16.5013 18.8033 17.1523 18.1523C17.8033 17.5013 18.8588 17.5013 19.5098 18.1523" stroke="#0000FF" stroke-width="1.7" stroke-linecap="round" stroke-linejoin="round"/>
</svg>
