<svg width="56" height="56" viewBox="0 0 56 56" fill="none" xmlns="http://www.w3.org/2000/svg">
<path fill-rule="evenodd" clip-rule="evenodd" d="M21.525 15.0551V15.0551C21.525 11.4804 24.423 8.58008 28 8.58008V8.58008C31.5746 8.58008 34.475 11.4781 34.475 15.0551V15.0551C34.475 18.6297 31.577 21.5301 28 21.5301V21.5301C24.423 21.5254 21.525 18.6274 21.525 15.0551Z" stroke="#0000FF" stroke-width="3" stroke-linecap="round" stroke-linejoin="round"/>
<path fill-rule="evenodd" clip-rule="evenodd" d="M5.83331 40.9452V40.9452C5.83331 37.3705 8.73131 34.4702 12.3083 34.4702V34.4702C15.883 34.4702 18.7833 37.3682 18.7833 40.9452V40.9452C18.781 44.5199 15.8853 47.4202 12.3083 47.4202V47.4202C8.73131 47.4202 5.83331 44.5222 5.83331 40.9452Z" stroke="#0000FF" stroke-width="3" stroke-linecap="round" stroke-linejoin="round"/>
<path fill-rule="evenodd" clip-rule="evenodd" d="M37.2191 40.9452V40.9452C37.2191 37.3705 40.1171 34.4702 43.6941 34.4702V34.4702C47.2688 34.4702 50.1691 37.3682 50.1691 40.9452V40.9452C50.1691 44.5199 47.2711 47.4202 43.6941 47.4202V47.4202C40.1148 47.4202 37.2191 44.5222 37.2191 40.9452H37.2191Z" stroke="#0000FF" stroke-width="3" stroke-linecap="round" stroke-linejoin="round"/>
<path d="M19.8099 27.8135L15.1199 35.1401" stroke="#0000FF" stroke-width="3" stroke-linecap="round" stroke-linejoin="round"/>
<path d="M31.5 20.4868L36.19 27.8135" stroke="#0000FF" stroke-width="3" stroke-linecap="round" stroke-linejoin="round"/>
<path d="M37.2167 40.9499H28" stroke="#0000FF" stroke-width="3" stroke-linecap="round" stroke-linejoin="round"/>
</svg>
