<svg width="18" height="19" viewBox="0 0 18 19" fill="none" xmlns="http://www.w3.org/2000/svg">
<g clip-path="url(#clip0_39_486)">
<path d="M17.8555 13.4152C17.834 13.3688 17.8139 13.3303 17.7953 13.2995C17.4869 12.7442 16.8977 12.0625 16.0279 11.2544L16.0095 11.2359L16.0003 11.2268L15.991 11.2175H15.9817C15.5869 10.8412 15.337 10.5882 15.2323 10.4586C15.0407 10.2119 14.9978 9.96208 15.1025 9.70899C15.1765 9.51778 15.4543 9.11395 15.9353 8.49697C16.1883 8.16998 16.3887 7.90792 16.5367 7.71048C17.604 6.29158 18.0667 5.38488 17.9247 4.99003L17.8696 4.89776C17.8326 4.84221 17.737 4.79139 17.5829 4.74505C17.4285 4.6988 17.2312 4.69115 16.9905 4.72197L14.3257 4.74038C14.2825 4.72508 14.2209 4.72651 14.1405 4.74505C14.0603 4.76359 14.0202 4.77289 14.0202 4.77289L13.9738 4.79606L13.937 4.8239C13.9062 4.84231 13.8722 4.87469 13.8352 4.92097C13.7983 4.96709 13.7675 5.02121 13.7429 5.08289C13.4528 5.82932 13.1229 6.52331 12.7527 7.16483C12.5244 7.54736 12.3148 7.87888 12.1233 8.15958C11.9321 8.44018 11.7718 8.64693 11.6423 8.77945C11.5127 8.9121 11.3957 9.01837 11.2906 9.09865C11.1857 9.17897 11.1056 9.2129 11.0501 9.20049C10.9946 9.18807 10.9422 9.17576 10.8927 9.16344C10.8064 9.10789 10.7369 9.03234 10.6846 8.93673C10.632 8.84113 10.5966 8.72079 10.5781 8.57582C10.5597 8.43075 10.5488 8.30598 10.5457 8.20107C10.5428 8.09628 10.5442 7.94807 10.5504 7.75686C10.5568 7.56554 10.5597 7.4361 10.5597 7.36823C10.5597 7.13378 10.5643 6.87933 10.5735 6.60482C10.5828 6.33031 10.5904 6.11281 10.5967 5.95257C10.603 5.79218 10.6059 5.62248 10.6059 5.44358C10.6059 5.26467 10.595 5.12437 10.5735 5.02254C10.5522 4.92084 10.5196 4.82212 10.4766 4.72641C10.4333 4.6308 10.37 4.55685 10.2869 4.50434C10.2036 4.4519 10.1001 4.41029 9.9769 4.37937C9.64992 4.30538 9.23355 4.26535 8.7276 4.25913C7.58026 4.24681 6.84304 4.3209 6.51609 4.4813C6.38655 4.54907 6.26932 4.64166 6.16451 4.75879C6.05344 4.89455 6.03795 4.96864 6.11813 4.98083C6.48831 5.03628 6.75038 5.16894 6.90462 5.37866L6.9602 5.48979C7.00344 5.56997 7.0466 5.71193 7.08981 5.91546C7.13294 6.119 7.16078 6.34415 7.17304 6.59079C7.20382 7.04118 7.20382 7.42673 7.17304 7.74746C7.14215 8.06832 7.11298 8.3181 7.08514 8.497C7.0573 8.6759 7.01569 8.82087 6.9602 8.93187C6.90462 9.04291 6.86764 9.11077 6.8491 9.13541C6.83059 9.16004 6.81517 9.17556 6.80292 9.18166C6.72273 9.21238 6.63934 9.22803 6.55304 9.22803C6.4666 9.22803 6.36179 9.1848 6.23844 9.09839C6.11512 9.01199 5.98713 8.89331 5.85448 8.74215C5.72182 8.59095 5.57222 8.37968 5.4056 8.10828C5.23911 7.83688 5.06637 7.51612 4.88747 7.146L4.73945 6.87758C4.64692 6.7049 4.52052 6.45347 4.36013 6.1235C4.19963 5.79341 4.05778 5.47411 3.93446 5.16566C3.88516 5.03612 3.81111 4.9375 3.71242 4.86963L3.66611 4.84179C3.63532 4.81716 3.58589 4.79101 3.51809 4.76313C3.45019 4.73529 3.37934 4.71533 3.30525 4.70305L0.769872 4.72145C0.510788 4.72145 0.334998 4.78015 0.242436 4.89737L0.205391 4.95283C0.186885 4.98371 0.177551 5.03304 0.177551 5.10094C0.177551 5.16881 0.196057 5.2521 0.233102 5.35072C0.603221 6.2206 1.00572 7.05953 1.44059 7.86763C1.87547 8.67574 2.25336 9.32669 2.57406 9.8199C2.89482 10.3135 3.22177 10.7793 3.55491 11.2172C3.88805 11.6552 4.10856 11.9359 4.21646 12.0592C4.32448 12.1827 4.40933 12.2751 4.471 12.3368L4.70237 12.5588C4.85042 12.7069 5.06783 12.8842 5.35469 13.0909C5.64161 13.2976 5.95926 13.5011 6.30779 13.7018C6.65639 13.9021 7.06193 14.0656 7.52465 14.192C7.9873 14.3186 8.4376 14.3694 8.87562 14.3449H9.93976C10.1556 14.3262 10.3191 14.2584 10.4302 14.1412L10.467 14.0948C10.4918 14.058 10.515 14.0008 10.5364 13.9239C10.558 13.8468 10.5688 13.7618 10.5688 13.6694C10.5624 13.4042 10.5826 13.1652 10.6288 12.9524C10.6749 12.7396 10.7275 12.5792 10.7863 12.4712C10.845 12.3633 10.9113 12.2722 10.9851 12.1984C11.0591 12.1244 11.1118 12.0796 11.1427 12.0641C11.1734 12.0486 11.198 12.0381 11.2165 12.0318C11.3645 11.9824 11.5388 12.0302 11.7394 12.1753C11.94 12.3203 12.128 12.4993 12.304 12.712C12.4798 12.925 12.691 13.1638 12.9377 13.4291C13.1846 13.6944 13.4004 13.8916 13.5854 14.0213L13.7704 14.1323C13.894 14.2064 14.0544 14.2743 14.2518 14.336C14.4489 14.3976 14.6216 14.413 14.7698 14.3822L17.1386 14.3453C17.3729 14.3453 17.5552 14.3065 17.6845 14.2295C17.8141 14.1524 17.891 14.0675 17.9159 13.9751C17.9406 13.8826 17.942 13.7776 17.9206 13.6603C17.8986 13.5433 17.877 13.4614 17.8555 13.4152Z" fill="#C2C3CA"/>
</g>
<defs>
<clipPath id="clip0_39_486">
<rect width="17.9498" height="17.9498" fill="white" transform="translate(0 0.513672)"/>
</clipPath>
</defs>
</svg>
