<svg width="27" height="27" viewBox="0 0 27 27" fill="none" xmlns="http://www.w3.org/2000/svg">
<path d="M19.4553 15.7089C18.3436 14.6454 18.2642 14.6454 19.2171 13.4182C20.4082 11.8637 21.9964 9.90021 20.567 9.90021H17.9465C17.4701 9.90021 17.3907 10.2275 17.2318 10.6365C16.5966 12.191 15.326 14.2363 14.8496 13.9091C14.3731 13.5818 14.6113 12.3546 14.6113 10.3911C14.6907 10.1456 14.6113 9.90021 14.4525 9.73658C14.2937 9.57296 14.0555 9.40933 13.8172 9.40933C13.4202 9.32752 13.0231 9.24571 12.6261 9.24571C11.1173 9.24571 10.085 9.90021 10.6409 9.98202C11.6732 10.1456 11.5938 12.4364 11.3555 13.4182C10.9585 15.1363 9.37031 12.1092 8.65563 10.5547C8.57622 10.1456 8.25858 9.90021 7.86153 9.90021H5.79689C5.47925 9.90021 5.24102 9.98202 5.24102 10.2275C5.24102 10.6365 7.22626 14.6454 9.05267 16.6907C10.8791 18.6542 12.7055 18.4906 13.9761 18.4906C14.1349 18.4906 14.2937 18.4088 14.3731 18.327C14.4525 18.2452 14.5319 18.0815 14.5319 17.9179C14.5319 16.6089 15.0084 15.9544 15.8819 16.8543C16.8348 17.8361 17.073 18.4906 18.2642 18.4906H20.4082C20.9641 18.4906 21.1229 18.327 21.1229 18.0815C21.2023 17.5088 20.2494 16.4453 19.4553 15.7089ZM13.8172 0.000819519C21.2023 0.164446 27.0786 6.30043 26.9992 13.7454C26.9198 21.1904 20.8053 27.081 13.4202 26.9992C5.95571 26.9173 0 20.945 0 13.5C0.0794094 5.97318 6.27334 -0.0809936 13.8172 0.000819519Z" fill="#8293A9"/>
</svg>
