<svg width="53" height="19" viewBox="0 0 53 19" fill="none" xmlns="http://www.w3.org/2000/svg">
<g clip-path="url(#clip0_39_499)">
<path d="M35.6674 11.2468C35.3258 11.9039 34.8703 11.8569 34.3692 11.8569V14.0394C34.3692 14.0394 34.7792 14.1333 35.4169 14.1333C36.4191 14.1333 37.239 13.6874 37.7628 12.5375C38.2867 11.3876 38.355 9.25202 38.6056 6.92873H41.0426V13.9221H43.3885V4.81665H36.4646C36.1913 7.84396 36.0319 10.5193 35.6674 11.2468Z" fill="#C2C3CA"/>
<path d="M29.6545 4.60547C27.4453 4.60547 25.8054 6.06046 25.4182 8.31334H24.2111V4.81668H21.8651V13.8986H24.2111V10.402H25.4182C25.8054 12.6548 27.4225 14.1098 29.6545 14.1098C32.2055 14.1098 33.9592 12.1855 33.9592 9.34592C33.9592 6.50634 32.1827 4.60547 29.6545 4.60547ZM29.6545 11.9273C28.4474 11.9273 27.6275 10.9417 27.6275 9.34592C27.6275 7.77359 28.4474 6.76448 29.6545 6.76448C30.8617 6.76448 31.6816 7.75012 31.6816 9.34592C31.6816 10.9417 30.8617 11.9273 29.6545 11.9273Z" fill="#C2C3CA"/>
<path d="M48.832 4.60547C47.6477 4.60547 46.5089 4.76974 45.5067 5.09829V7.2573C45.5067 7.2573 46.7822 6.76448 48.5132 6.76448C50.4491 6.76448 50.6541 7.77359 50.6541 8.24294V8.40721C50.6541 8.40721 49.6975 8.24294 48.6954 8.24294C45.4612 8.24294 44.7779 9.97954 44.7779 11.1764C44.7779 12.3732 45.5067 14.1098 48.0577 14.1098C49.3787 14.1098 50.3125 13.4762 50.768 12.9365H50.8591V13.8752H53.0001V8.80616C53.0001 7.21037 52.6584 4.60547 48.832 4.60547ZM50.6769 11.106C50.6769 11.106 50.062 12.0682 48.6498 12.0682C47.7616 12.0682 47.3516 11.6692 47.3516 11.0825C47.3516 10.4958 47.8071 9.97954 49.3787 9.97954C50.1303 9.97954 50.6997 9.97954 50.6997 9.97954V11.106H50.6769Z" fill="#C2C3CA"/>
<path d="M9.61153 18.4219C10.887 14.3855 13.9845 11.2174 17.902 9.87972C18.1753 9.78585 18.312 9.48077 18.2209 9.22263C18.1753 9.05836 18.0615 8.94102 17.902 8.89408C13.9618 7.5799 10.887 4.41178 9.61153 0.351892C9.52042 0.0702809 9.22433 -0.0705244 8.9738 0.0233458C8.81436 0.0702809 8.70048 0.187619 8.65493 0.351892C7.35669 4.41178 4.28192 7.5799 0.364429 8.89408C0.091116 8.98795 -0.0455406 9.29303 0.0455638 9.55117C0.091116 9.71545 0.204997 9.83278 0.364429 9.87972C4.28192 11.1939 7.35669 14.362 8.65493 18.4219C8.74604 18.7035 9.04212 18.8443 9.29266 18.7505C9.42932 18.7035 9.5432 18.5862 9.61153 18.4219Z" fill="#C2C3CA"/>
<path opacity="0.8" d="M0.364502 9.87964C4.28199 11.1938 7.35677 14.3619 8.65501 18.4218C8.74611 18.7034 9.0422 18.8443 9.29274 18.7504C9.45217 18.7034 9.56605 18.5861 9.6116 18.4218C10.8871 14.3854 13.9846 11.2173 17.9021 9.87964C16.0345 10.5133 12.8914 11.0061 9.1333 11.0061C5.37525 11.0061 2.20937 10.5133 0.364502 9.87964Z" fill="#BDC3CD"/>
</g>
<defs>
<clipPath id="clip0_39_499">
<rect width="53" height="18.8444" fill="white"/>
</clipPath>
</defs>
</svg>
